# xmcd CD database file
#
# Track frame offsets:
#	150
#	16415
#	34241
#	52931
#	69883
#	94593
#	110133
#	129854
#	145593
#	164822
#
# Disc length: 2406 seconds
#
# Revision: 0
# Processed by: cddbd v1.5.2PL0 Copyright (c) Steve Scherf et al.
# Submitted via: CDex 1.51
#
DISCID=8009640a
DTITLE=Marie Modiano - I'm not a rose
DYEAR=2006
DGENRE=
TTITLE0=A shadow by my window
TTITLE1=Honolulu
TTITLE2=Ballad of the lonesome circus
TTITLE3=Walking around in circles
TTITLE4=The one I've never known
TTITLE5=C'est dur l'amour
TTITLE6=Little Mum
TTITLE7=Queen of hearts
TTITLE8=Take me back where I belong
TTITLE9=I'm not a rose
EXTD=YEAR: 2006
EXTT0=
EXTT1=
EXTT2=
EXTT3=
EXTT4=
EXTT5=
EXTT6=
EXTT7=
EXTT8=
EXTT9=
PLAYORDER=
